<svg width="47" height="47" xmlns="http://www.w3.org/2000/svg" xmlns:xlink="http://www.w3.org/1999/xlink" xml:space="preserve" overflow="hidden"><defs><clipPath id="clip0"><rect x="1081" y="403" width="47" height="47"/></clipPath></defs><g clip-path="url(#clip0)" transform="translate(-1081 -403)"><path d="M1117.86 431.141C1116.27 429.869 1114.49 428.854 1112.58 428.134 1113.27 425.689 1114.98 418.226 1112.05 412.327 1111.24 410.57 1109.86 409.14 1108.13 408.272 1107.91 408.169 1107.66 408.192 1107.47 408.332L1107.02 408.654 1106.52 407.954C1106.36 407.734 1106.13 407.583 1105.87 407.532 1105.4 407.449 1104.93 407.407 1104.45 407.406 1100.5 407.406 1097.46 410.184 1096.3 413.958 1094.43 419.5 1095.81 425.921 1096.42 428.131 1094.52 428.852 1092.73 429.868 1091.14 431.141 1090.03 432.052 1089.37 433.394 1089.32 434.826L1089.32 438.17C1088.95 438.09 1088.56 438.066 1088.18 438.098L1084.15 424.879C1084.03 424.489 1083.63 424.263 1083.24 424.374 1082.85 424.485 1082.62 424.891 1082.73 425.281 1082.74 425.29 1082.74 425.299 1082.74 425.308L1086.74 438.429C1085.25 438.928 1084.32 439.79 1085.05 442.634 1085.65 444.953 1086.58 445.582 1087.73 445.582 1088.26 445.562 1088.78 445.477 1089.29 445.329 1089.96 445.18 1090.58 444.85 1091.07 444.375 1093.07 445.16 1096.17 445.679 1099.6 445.932L1099.6 431.342 1101.31 434.407 1104.5 432.277 1107.69 434.405 1109.4 431.339 1109.4 445.952C1113.84 445.643 1117.68 444.887 1119.29 443.687L1119.68 443.393 1119.68 434.805C1119.62 433.38 1118.96 432.047 1117.86 431.141ZM1088.84 443.424C1087.38 443.799 1087.38 443.801 1086.95 442.143 1086.52 440.485 1086.52 440.485 1087.96 440.114L1088.01 440.099C1088.31 440.023 1088.62 440.017 1088.91 440.083L1089.02 440.107C1089.62 440.241 1090.09 440.688 1090.26 441.275 1090.46 442.261 1089.82 443.22 1088.84 443.424ZM1101.82 432.302 1099.9 428.847 1100.04 428.789C1100.12 428.752 1100.21 428.711 1100.29 428.665L1103.57 431.13ZM1101.31 427.597C1101.47 427.262 1101.56 426.896 1101.56 426.524L1101.56 426.43C1103.45 427.189 1105.56 427.177 1107.44 426.397L1107.44 426.524C1107.44 426.982 1107.57 427.43 1107.81 427.818L1104.53 430.007ZM1107.18 432.302 1105.46 431.151 1108.98 428.801 1109.1 428.85ZM1110.33 419.156C1110.33 422.401 1107.7 425.031 1104.45 425.031 1101.21 425.031 1098.58 422.401 1098.58 419.156L1098.58 418.481C1100.22 417.945 1104.84 416.267 1106.71 413.792 1108.05 414.621 1109.26 415.632 1110.33 416.794Z"/><path d="M1122.13 413.771C1121.78 413.546 1121.51 413.224 1121.34 412.846L1121.34 412.503C1121.34 412.151 1121.05 411.866 1120.7 411.866 1120.35 411.866 1120.07 412.151 1120.07 412.503L1120.07 422.177C1119.45 422.069 1118.82 422.13 1118.23 422.353 1116.84 422.843 1115.99 424.013 1116.33 424.938 1116.66 425.864 1118.05 426.206 1119.44 425.702 1120.3 425.44 1120.99 424.817 1121.34 423.998L1121.34 417.115C1121.46 417.215 1121.58 417.305 1121.72 417.384 1123.85 418.647 1122.67 420.684 1123.72 420.694 1125.04 420.703 1125.07 415.729 1122.13 413.771Z"/></g></svg>