<svg width="54" height="54" xmlns="http://www.w3.org/2000/svg" xmlns:xlink="http://www.w3.org/1999/xlink" xml:space="preserve" overflow="hidden"><defs><clipPath id="clip0"><rect x="1080" y="453" width="54" height="54"/></clipPath></defs><g clip-path="url(#clip0)" transform="translate(-1080 -453)"><path d="M1095.19 471C1095.19 471.621 1094.68 472.125 1094.06 472.125 1093.44 472.125 1092.94 471.621 1092.94 471 1092.94 470.379 1093.44 469.875 1094.06 469.875 1094.68 469.875 1095.19 470.379 1095.19 471Z"/><path d="M1095.19 475.5C1095.19 476.121 1094.68 476.625 1094.06 476.625 1093.44 476.625 1092.94 476.121 1092.94 475.5 1092.94 474.879 1093.44 474.375 1094.06 474.375 1094.68 474.375 1095.19 474.879 1095.19 475.5Z"/><path d="M1092.94 473.25C1092.94 473.871 1092.43 474.375 1091.81 474.375 1091.19 474.375 1090.69 473.871 1090.69 473.25 1090.69 472.629 1091.19 472.125 1091.81 472.125 1092.43 472.125 1092.94 472.629 1092.94 473.25Z"/><path d="M1097.44 473.25C1097.44 473.871 1096.93 474.375 1096.31 474.375 1095.69 474.375 1095.19 473.871 1095.19 473.25 1095.19 472.629 1095.69 472.125 1096.31 472.125 1096.93 472.125 1097.44 472.629 1097.44 473.25Z"/><path d="M1110.94 468.75C1110.94 469.371 1110.43 469.875 1109.81 469.875 1109.19 469.875 1108.69 469.371 1108.69 468.75 1108.69 468.129 1109.19 467.625 1109.81 467.625 1110.43 467.625 1110.94 468.129 1110.94 468.75Z"/><path d="M1110.94 473.25C1110.94 473.871 1110.43 474.375 1109.81 474.375 1109.19 474.375 1108.69 473.871 1108.69 473.25 1108.69 472.629 1109.19 472.125 1109.81 472.125 1110.43 472.125 1110.94 472.629 1110.94 473.25Z"/><path d="M1108.69 471C1108.69 471.621 1108.18 472.125 1107.56 472.125 1106.94 472.125 1106.44 471.621 1106.44 471 1106.44 470.379 1106.94 469.875 1107.56 469.875 1108.18 469.875 1108.69 470.379 1108.69 471Z"/><path d="M1113.19 471C1113.19 471.621 1112.68 472.125 1112.06 472.125 1111.44 472.125 1110.94 471.621 1110.94 471 1110.94 470.379 1111.44 469.875 1112.06 469.875 1112.68 469.875 1113.19 470.379 1113.19 471Z"/><path d="M1126.12 478.312 1122.75 481.688 1118.25 481.688 1118.25 494.062 1122.75 494.062 1126.12 497.438 1129.5 497.438 1129.5 478.312Z"/><path d="M1109.81 476.062C1107 476.062 1104.75 473.812 1104.75 471 1104.75 468.188 1107 465.938 1109.81 465.938 1112.62 465.938 1114.88 468.188 1114.88 471 1114.88 473.812 1112.62 476.062 1109.81 476.062ZM1111.5 494.062C1110.88 494.062 1110.38 493.556 1110.38 492.938 1110.38 492.319 1110.88 491.812 1111.5 491.812 1112.12 491.812 1112.62 492.319 1112.62 492.938 1112.62 493.556 1112.12 494.062 1111.5 494.062ZM1100.81 478.312C1101.54 477.3 1102.11 476.175 1102.33 474.881 1103.06 476.288 1104.24 477.469 1105.59 478.312L1100.81 478.312ZM1094.06 478.312C1091.25 478.312 1089 476.062 1089 473.25 1089 470.438 1091.25 468.188 1094.06 468.188 1096.88 468.188 1099.12 470.438 1099.12 473.25 1099.12 476.062 1096.88 478.312 1094.06 478.312ZM1113.97 478.312C1116.51 476.85 1118.25 474.15 1118.25 471 1118.25 466.331 1114.48 462.562 1109.81 462.562 1105.71 462.562 1102.33 465.487 1101.54 469.369 1100.14 466.669 1097.32 464.812 1094.06 464.812 1089.39 464.812 1085.62 468.581 1085.62 473.25 1085.62 476.006 1086.97 478.425 1089 480L1089 481.688 1087.88 481.688 1086.75 480.562 1084.5 480.562 1084.5 486.188 1086.75 486.188 1087.88 485.062 1089 485.062 1089 495.188C1089 496.425 1090.01 497.438 1091.25 497.438L1113.75 497.438C1114.99 497.438 1116 496.425 1116 495.188L1116 480.562C1116 479.381 1115.1 478.425 1113.97 478.312Z"/></g></svg>