<svg width="40" height="40" xmlns="http://www.w3.org/2000/svg" xmlns:xlink="http://www.w3.org/1999/xlink" xml:space="preserve" overflow="hidden"><defs><clipPath id="clip0"><rect x="1110" y="512" width="40" height="40"/></clipPath></defs><g clip-path="url(#clip0)" transform="translate(-1110 -512)"><path d="M1133.5 540.161C1133.8 540.168 1134.11 540.173 1134.44 540.173 1134.8 540.173 1135.16 540.166 1135.51 540.156 1135.57 539.917 1135.58 539.671 1135.55 539.428 1135.44 538.592 1134.86 537.98 1134.26 538.061 1133.66 538.143 1133.27 538.886 1133.39 539.723 1133.41 539.873 1133.45 540.02 1133.5 540.161Z"/><path d="M1139.57 539.778C1139.88 539.722 1140.15 539.667 1140.37 539.611 1140.4 539.557 1140.44 539.504 1140.46 539.444 1140.8 538.672 1140.63 537.849 1140.08 537.606 1139.53 537.363 1138.8 537.792 1138.46 538.564 1138.25 538.997 1138.23 539.497 1138.41 539.945 1138.82 539.9 1139.21 539.843 1139.57 539.778Z"/><path d="M1141.46 538.634C1141.46 538.83 1141.44 539.026 1141.39 539.217L1141.65 539.285C1141.87 539.345 1142.01 539.573 1141.95 539.795 1141.91 539.931 1141.81 540.039 1141.68 540.083 1141.04 540.32 1140.39 540.492 1139.72 540.596 1137.97 540.881 1136.2 541.018 1134.43 541.005 1130.8 541.005 1128.3 540.527 1127.17 540.08 1126.96 539.994 1126.85 539.752 1126.94 539.538 1126.98 539.434 1127.06 539.351 1127.16 539.308L1127.64 539.11C1127.59 538.929 1127.57 538.742 1127.58 538.555 1126.5 538.855 1125.85 539.229 1125.85 539.635 1125.85 539.784 1125.86 539.932 1125.87 540.08 1125.99 541.951 1126.92 543.674 1128.43 544.788 1129.43 545.537 1130.61 545.996 1131.85 546.114 1132.06 546.134 1132.27 546.144 1132.49 546.145L1136.28 546.145C1138.59 546.148 1140.74 544.964 1141.97 543.01 1142.52 542.128 1142.84 541.121 1142.9 540.083 1142.91 540.01 1142.91 539.935 1142.91 539.861 1142.91 539.787 1142.92 539.713 1142.92 539.638 1142.92 539.265 1142.38 538.92 1141.46 538.634Z"/><path d="M1129.15 539.746C1129.58 539.83 1130.07 539.902 1130.62 539.965 1130.14 539.393 1130.03 538.59 1130.36 537.913 1130.32 537.9 1130.29 537.882 1130.25 537.872 1129.46 537.597 1128.65 537.837 1128.45 538.407 1128.29 538.875 1128.6 539.414 1129.15 539.746Z"/><path d="M1133.55 537.451C1133.51 537.384 1133.47 537.322 1133.41 537.268 1132.99 536.841 1132.16 536.98 1131.56 537.576 1130.96 538.173 1130.83 539.003 1131.25 539.429 1131.62 539.727 1132.13 539.762 1132.54 539.516 1132.47 538.695 1132.86 537.903 1133.55 537.451Z"/><path d="M1148.33 542.208C1148.33 539.281 1144.46 536.737 1138.75 535.432L1138.75 537.006C1139.05 536.817 1139.4 536.714 1139.75 536.708 1139.98 536.707 1140.2 536.754 1140.41 536.846 1140.79 537.017 1141.09 537.32 1141.27 537.698L1141.71 537.838C1142.22 537.996 1143.75 538.475 1143.75 539.636 1143.75 539.698 1143.75 539.758 1143.75 539.82L1143.74 539.952C1143.74 540.011 1143.74 540.07 1143.74 540.129 1143.73 540.26 1143.71 540.391 1143.7 540.521 1144.06 541.01 1144.26 541.6 1144.28 542.208 1144.28 545.521 1137.88 548.211 1130 548.211 1122.12 548.211 1115.72 545.521 1115.72 542.208 1115.72 540.424 1117.58 538.823 1120.53 537.723L1120.53 537.287C1119.76 537.058 1119.04 536.705 1118.39 536.243 1114.29 537.656 1111.67 539.802 1111.67 542.208 1111.67 542.252 1111.67 542.295 1111.67 542.339 1111.67 542.365 1111.67 542.39 1111.67 542.417 1111.67 547.241 1119.89 551.167 1130 551.167 1140.11 551.167 1148.33 547.241 1148.33 542.417 1148.33 542.39 1148.33 542.365 1148.33 542.339 1148.33 542.295 1148.33 542.252 1148.33 542.208Z"/><path d="M1125.56 542.412C1125.39 542.327 1125.21 542.258 1125.02 542.207 1124.62 542.099 1124.21 542.034 1123.8 542.011 1123.32 541.858 1122.95 541.618 1122.95 541.335L1122.95 536.236C1124.39 536.236 1127.05 534.778 1126.92 533.338L1126.44 526.583 1118.42 526.583 1117.85 533.338C1117.74 534.755 1120.36 536.236 1121.78 536.236L1121.78 541.313C1121.78 541.618 1121.38 541.836 1120.93 541.989 1120.49 542.054 1120.08 542.098 1119.75 542.185L1119.73 542.185C1119.16 542.338 1118.83 542.534 1118.83 542.773 1118.83 543.273 1120.43 543.667 1122.39 543.667 1124.04 543.667 1125.45 543.381 1125.83 542.986 1125.74 542.798 1125.64 542.607 1125.56 542.412ZM1119.07 530.397 1119.27 527.563 1125.46 527.563 1125.61 530.397Z"/><path d="M1129.59 536.923C1129.91 536.924 1130.23 536.978 1130.53 537.082 1130.57 537.099 1130.62 537.117 1130.66 537.138L1130.8 537.191C1130.85 537.122 1130.91 537.052 1130.97 536.987 1131.44 536.496 1132.08 536.209 1132.76 536.187 1133.22 536.179 1133.67 536.356 1134 536.679 1134.11 536.79 1134.2 536.916 1134.28 537.054L1134.37 537.223C1134.64 537.228 1134.91 537.298 1135.15 537.429 1135.35 537.189 1135.58 536.983 1135.84 536.818 1136.27 536.541 1136.77 536.391 1137.28 536.385 1137.35 536.388 1137.43 536.395 1137.5 536.407L1137.5 525.106C1137.5 523.585 1136.65 522.189 1135.31 521.484L1134.91 514.538 1135.25 514.538 1135.25 514.197C1135.25 514.022 1135.22 513.848 1135.15 513.686 1134.93 513.201 1134.44 512.894 1133.91 512.908L1132.25 512.908C1131.72 512.894 1131.23 513.2 1131.01 513.686 1130.94 513.848 1130.91 514.022 1130.91 514.197L1130.91 514.538 1131.22 514.538 1130.83 521.484C1129.48 522.189 1128.64 523.585 1128.64 525.106L1128.64 537.125C1128.94 536.99 1129.26 536.922 1129.59 536.923Z"/><path d="M1137.7 538.232C1137.81 537.993 1137.94 537.768 1138.11 537.565 1137.76 537.12 1136.97 537.091 1136.29 537.52 1136.1 537.637 1135.94 537.783 1135.8 537.953 1136.11 538.345 1136.31 538.817 1136.38 539.316 1136.39 539.435 1136.4 539.554 1136.4 539.673 1136.77 539.679 1137.14 539.573 1137.45 539.369 1137.46 539.366 1137.46 539.362 1137.46 539.359 1137.46 538.971 1137.54 538.587 1137.7 538.232Z"/></g></svg>