<svg width="48" height="48" xmlns="http://www.w3.org/2000/svg" xmlns:xlink="http://www.w3.org/1999/xlink" xml:space="preserve" overflow="hidden"><defs><clipPath id="clip0"><rect x="1057" y="512" width="48" height="48"/></clipPath></defs><g clip-path="url(#clip0)" transform="translate(-1057 -512)"><path d="M1095 534C1095 535.1 1094.1 536 1093 536 1091.9 536 1091 535.1 1091 534L1091 532 1090 522 1094 522 1095 532 1095 534ZM1087 534C1087 535.1 1086.1 536 1085 536 1083.9 536 1083 535.1 1083 534L1083 532 1082.5 522 1086.5 522 1087 532 1087 534ZM1079 532 1079 534C1079 535.1 1078.1 536 1077 536 1075.9 536 1075 535.1 1075 534L1075 532 1075.5 522 1079.5 522 1079 532ZM1077 548 1069 548 1069 540 1077 540 1077 548ZM1067 534 1067 532 1068 522 1072 522 1071 532 1071 534C1071 535.1 1070.1 536 1069 536 1067.9 536 1067 535.1 1067 534ZM1097 519 1065 519 1063 532 1063 534C1063 535.1 1063.9 536 1065 536L1065 553 1082 553 1082 540 1093 540 1093 553 1097 553 1097 536C1098.1 536 1099 535.1 1099 534L1099 532 1097 519Z"/></g></svg>